<svg id="svg" xmlns="http://www.w3.org/2000/svg" xmlns:xlink="http://www.w3.org/1999/xlink" width="400" height="400" viewBox="0, 0, 400,400"><g id="svgg"><path id="path0" d="M101.800 87.879 C 55.267 92.087,26.068 148.757,45.926 196.322 C 69.126 251.891,139.305 253.927,165.820 199.800 C 191.677 147.016,155.093 83.060,101.800 87.879 M285.200 88.039 C 225.709 94.678,202.701 177.623,248.264 221.200 C 288.758 259.929,351.962 232.730,358.240 173.872 C 363.380 125.690,327.338 83.336,285.200 88.039 M8.400 93.155 C 6.534 93.558,4.811 94.498,3.639 95.752 L 2.678 96.781 2.954 104.890 C 3.213 112.537,4.357 139.751,5.219 158.800 C 5.433 163.530,5.779 171.630,5.987 176.800 C 7.878 223.730,13.625 249.193,29.776 282.200 C 60.853 345.711,114.045 387.022,177.400 396.853 C 223.491 404.004,276.420 386.841,316.400 351.779 C 353.975 318.827,383.521 264.137,388.566 218.200 C 389.121 213.140,390.122 204.230,390.790 198.400 C 391.709 190.371,392.101 184.599,392.405 174.600 C 393.012 154.616,393.543 139.576,393.992 129.600 C 395.485 96.468,395.518 97.801,393.142 95.515 C 388.969 91.501,382.565 92.786,379.805 98.191 L 378.600 100.551 378.585 118.175 C 378.564 142.840,377.794 165.832,376.602 177.400 C 376.285 180.480,375.746 186.060,375.406 189.800 C 364.694 307.373,277.872 390.995,179.589 378.399 C 124.451 371.332,74.524 332.631,46.200 275.000 C 32.947 248.033,24.478 216.209,22.409 185.600 C 22.179 182.190,21.726 176.610,21.404 173.200 C 20.382 162.373,19.467 136.848,19.433 118.174 L 19.400 100.148 18.194 97.787 C 16.288 94.057,12.505 92.268,8.400 93.155 M114.800 106.599 C 151.555 113.060,168.668 163.149,146.097 198.200 C 121.894 235.786,71.187 225.544,59.635 180.736 C 49.229 140.372,79.037 100.312,114.800 106.599 M299.821 106.949 C 337.458 115.048,353.781 168.407,328.799 201.678 C 304.212 234.424,259.135 224.645,245.471 183.600 C 231.727 142.318,262.500 98.917,299.821 106.949 M185.051 220.019 C 180.103 220.786,178.701 222.592,178.463 228.509 C 178.154 236.197,179.800 237.968,188.220 239.004 C 190.837 239.327,193.145 240.642,194.178 242.400 C 194.987 243.778,195.003 244.370,195.200 280.800 C 195.422 321.880,195.282 319.851,198.062 322.191 C 200.674 324.389,208.142 324.671,211.142 322.686 C 214.432 320.509,214.187 324.373,214.307 272.825 C 214.432 219.188,214.735 222.698,209.795 220.542 C 207.953 219.738,189.395 219.346,185.051 220.019 " stroke="none" fill="#eaeaea" fill-rule="evenodd"></path><path id="path1" d="M0.000 200.000 L 0.000 400.000 200.000 400.000 L 400.000 400.000 400.000 200.000 L 400.000 0.000 200.000 0.000 L 0.000 0.000 0.000 200.000 M113.800 88.041 C 152.297 92.727,178.929 130.939,173.572 173.800 C 168.327 215.759,133.465 244.839,96.068 238.449 C 55.867 231.580,30.754 186.294,42.472 141.800 C 51.385 107.955,82.813 84.268,113.800 88.041 M296.058 88.015 C 352.990 93.717,379.217 169.638,340.340 216.200 C 316.421 244.846,275.321 247.078,248.264 221.200 C 217.268 191.555,216.022 138.987,245.578 107.896 C 259.056 93.718,278.102 86.216,296.058 88.015 M15.194 94.319 C 16.518 95.137,17.304 96.045,18.194 97.787 L 19.400 100.148 19.433 118.174 C 19.467 136.848,20.382 162.373,21.404 173.200 C 21.726 176.610,22.179 182.190,22.409 185.600 C 25.475 230.968,41.621 275.415,67.475 309.658 C 114.549 372.007,188.472 395.487,254.600 369.093 C 321.310 342.468,367.780 273.500,375.406 189.800 C 375.746 186.060,376.285 180.480,376.602 177.400 C 377.794 165.832,378.564 142.840,378.585 118.175 L 378.600 100.551 379.805 98.191 C 382.565 92.786,388.969 91.501,393.142 95.515 C 395.160 97.456,395.350 99.277,394.806 111.460 C 394.582 116.487,394.215 124.650,393.992 129.600 C 393.543 139.576,393.012 154.616,392.405 174.600 C 392.101 184.599,391.709 190.371,390.790 198.400 C 390.122 204.230,389.121 213.140,388.566 218.200 C 387.282 229.884,386.654 233.017,383.444 243.739 C 358.945 325.553,299.106 383.180,225.200 396.134 C 168.525 406.068,105.995 381.754,63.350 333.200 C 40.220 306.866,20.945 269.979,12.663 236.200 C 9.588 223.659,6.918 199.903,5.987 176.800 C 5.779 171.630,5.433 163.530,5.219 158.800 C 4.357 139.751,3.213 112.537,2.954 104.890 L 2.678 96.781 3.639 95.752 C 6.486 92.705,11.562 92.075,15.194 94.319 M99.800 106.643 C 58.170 114.076,42.857 175.859,74.776 207.606 C 102.687 235.367,145.028 219.274,154.775 177.200 C 163.838 138.081,134.513 100.445,99.800 106.643 M285.339 106.395 C 243.198 112.354,227.225 173.234,259.093 206.435 C 291.664 240.370,342.498 212.462,340.698 161.634 C 339.519 128.350,313.523 102.410,285.339 106.395 M209.795 220.542 C 214.735 222.698,214.432 219.188,214.307 272.825 C 214.187 324.373,214.432 320.509,211.142 322.686 C 208.142 324.671,200.674 324.389,198.062 322.191 C 195.282 319.851,195.422 321.880,195.200 280.800 C 195.003 244.370,194.987 243.778,194.178 242.400 C 193.145 240.642,190.837 239.327,188.220 239.004 C 179.800 237.968,178.154 236.197,178.463 228.509 C 178.794 220.274,180.303 219.590,197.800 219.751 C 206.662 219.832,208.436 219.949,209.795 220.542 " stroke="none" fill="#0d0d0d" fill-rule="evenodd"></path></g></svg>